<svg width="24" height="24" viewBox="0 0 24 24" fill="none" xmlns="http://www.w3.org/2000/svg">
<g id="Iconly/Two-tone/2 User">
<g id="2 User">
<path id="Stroke 1" fill-rule="evenodd" clip-rule="evenodd" d="M9.5915 15.207C13.2805 15.207 16.4335 15.766 16.4335 17.999C16.4335 20.232 13.3015 20.807 9.5915 20.807C5.9015 20.807 2.7495 20.253 2.7495 18.019C2.7495 15.785 5.8805 15.207 9.5915 15.207Z" stroke="#130F26" stroke-width="1.5" stroke-linecap="round" stroke-linejoin="round"/>
<path id="Stroke 3" opacity="0.4" fill-rule="evenodd" clip-rule="evenodd" d="M9.5915 12.02C7.1695 12.02 5.2055 10.057 5.2055 7.635C5.2055 5.213 7.1695 3.25 9.5915 3.25C12.0125 3.25 13.9765 5.213 13.9765 7.635C13.9855 10.048 12.0355 12.011 9.6225 12.02H9.5915Z" stroke="#130F26" stroke-width="1.5" stroke-linecap="round" stroke-linejoin="round"/>
<path id="Stroke 5" opacity="0.4" d="M16.4831 10.8818C18.0841 10.6568 19.3171 9.28277 19.3201 7.61977C19.3201 5.98077 18.1251 4.62077 16.5581 4.36377" stroke="#130F26" stroke-width="1.5" stroke-linecap="round" stroke-linejoin="round"/>
<path id="Stroke 7" d="M18.5954 14.7324C20.1464 14.9634 21.2294 15.5074 21.2294 16.6274C21.2294 17.3984 20.7194 17.8984 19.8954 18.2114" stroke="#130F26" stroke-width="1.5" stroke-linecap="round" stroke-linejoin="round"/>
</g>
</g>
</svg>
