<svg width="24" height="24" viewBox="0 0 24 24" fill="none" xmlns="http://www.w3.org/2000/svg">
<path fill-rule="evenodd" clip-rule="evenodd" d="M16.5137 21.4998H8.16592C5.09955 21.4998 2.74715 20.3922 3.41534 15.9346L4.19338 9.89339C4.60528 7.66913 6.02404 6.81787 7.26889 6.81787H17.4474C18.7105 6.81787 20.0469 7.7332 20.5229 9.89339L21.3009 15.9346C21.8684 19.8888 19.5801 21.4998 16.5137 21.4998Z" stroke="#130F26" stroke-width="1.5" stroke-linecap="round" stroke-linejoin="round"/>
<path opacity="0.4" d="M16.651 6.59824C16.651 4.21216 14.7167 2.27787 12.3307 2.27787V2.27787C11.1817 2.273 10.0781 2.72603 9.26388 3.53679C8.44969 4.34754 7.99199 5.44923 7.992 6.59824H7.992" stroke="#130F26" stroke-width="1.5" stroke-linecap="round" stroke-linejoin="round"/>
<path d="M15.2963 11.1017H15.2506" stroke="#130F26" stroke-width="1.5" stroke-linecap="round" stroke-linejoin="round"/>
<path d="M9.46569 11.1017H9.41992" stroke="#130F26" stroke-width="1.5" stroke-linecap="round" stroke-linejoin="round"/>
</svg>
