<svg width="24" height="24" viewBox="0 0 24 24" fill="none" xmlns="http://www.w3.org/2000/svg">
<g id="Iconly/Two-tone/Camera">
<g id="Camera">
<path id="Stroke 1" fill-rule="evenodd" clip-rule="evenodd" d="M15.0402 4.0515C16.0502 4.4535 16.3592 5.8535 16.7722 6.3035C17.1852 6.7535 17.7762 6.9065 18.1032 6.9065C19.8412 6.9065 21.2502 8.3155 21.2502 10.0525V15.8475C21.2502 18.1775 19.3602 20.0675 17.0302 20.0675H6.97021C4.63921 20.0675 2.75021 18.1775 2.75021 15.8475V10.0525C2.75021 8.3155 4.15921 6.9065 5.89721 6.9065C6.22321 6.9065 6.81421 6.7535 7.22821 6.3035C7.64121 5.8535 7.94921 4.4535 8.95921 4.0515C9.97021 3.6495 14.0302 3.6495 15.0402 4.0515Z" stroke="#130F26" stroke-width="1.5" stroke-linecap="round" stroke-linejoin="round"/>
<g id="Group">
<path id="Stroke 13" opacity="0.4" d="M17.4955 9.7002H17.5045" stroke="#130F26" stroke-width="2" stroke-linecap="round" stroke-linejoin="round"/>
<path id="Stroke 5" opacity="0.4" fill-rule="evenodd" clip-rule="evenodd" d="M15.1789 13.3284C15.1789 11.5724 13.7559 10.1494 11.9999 10.1494C10.2439 10.1494 8.82092 11.5724 8.82092 13.3284C8.82092 15.0844 10.2439 16.5074 11.9999 16.5074C13.7559 16.5074 15.1789 15.0844 15.1789 13.3284Z" stroke="#130F26" stroke-width="1.5" stroke-linecap="round" stroke-linejoin="round"/>
</g>
</g>
</g>
</svg>
