<svg width="24" height="24" viewBox="0 0 24 24" fill="none" xmlns="http://www.w3.org/2000/svg">
<path d="M4.7943 7.05575C4.7943 5.80675 5.8073 4.79375 7.0553 4.79375H8.0843C8.6803 4.79375 9.2533 4.55775 9.6773 4.13675L10.3963 3.41675C11.2773 2.53175 12.7093 2.52775 13.5943 3.40875L13.6033 3.41675L14.3233 4.13675C14.7463 4.55775 15.3193 4.79375 15.9163 4.79375H16.9443C18.1933 4.79375 19.2063 5.80675 19.2063 7.05575V8.08275C19.2063 8.68075 19.4423 9.25275 19.8633 9.67675L20.5833 10.3967C21.4683 11.2777 21.4733 12.7087 20.5923 13.5947L20.5833 13.6037L19.8633 14.3237C19.4423 14.7457 19.2063 15.3197 19.2063 15.9157V16.9447C19.2063 18.1937 18.1933 19.2057 16.9443 19.2057H15.9163C15.3193 19.2057 14.7463 19.4427 14.3233 19.8637L13.6033 20.5827C12.7233 21.4687 11.2913 21.4727 10.4053 20.5917C10.4023 20.5887 10.3993 20.5857 10.3963 20.5827L9.6773 19.8637C9.2533 19.4427 8.6803 19.2057 8.0843 19.2057H7.0553C5.8073 19.2057 4.7943 18.1937 4.7943 16.9447V15.9157C4.7943 15.3197 4.5573 14.7457 4.1363 14.3237L3.4173 13.6037C2.5313 12.7227 2.5273 11.2907 3.4083 10.4057L3.4173 10.3967L4.1363 9.67675C4.5573 9.25275 4.7943 8.68075 4.7943 8.08275V7.05575" stroke="#130F26" stroke-width="1.5" stroke-linecap="round" stroke-linejoin="round"/>
<path opacity="0.4" d="M9.43001 14.5697L14.57 9.42969" stroke="#130F26" stroke-width="1.5" stroke-linecap="round" stroke-linejoin="round"/>
<path opacity="0.4" d="M14.5667 15.3225C14.3667 15.3225 14.1767 15.2425 14.0367 15.1025C13.9667 15.0325 13.9167 14.9425 13.8767 14.8525C13.8367 14.7625 13.8167 14.6735 13.8167 14.5725C13.8167 14.4725 13.8367 14.3725 13.8767 14.2825C13.9167 14.1925 13.9667 14.1125 14.0367 14.0425C14.3167 13.7625 14.8167 13.7625 15.0967 14.0425C15.1667 14.1125 15.2267 14.1925 15.2667 14.2825C15.2967 14.3725 15.3167 14.4725 15.3167 14.5725C15.3167 14.6735 15.2967 14.7625 15.2667 14.8525C15.2267 14.9425 15.1667 15.0325 15.0967 15.1025C14.9567 15.2425 14.7667 15.3225 14.5667 15.3225Z" fill="#130F26"/>
<path opacity="0.4" d="M9.42661 10.1826C9.32661 10.1826 9.23661 10.1616 9.14661 10.1216C9.05661 10.0816 8.96661 10.0326 8.89661 9.96264C8.82661 9.88264 8.77661 9.80264 8.73661 9.71264C8.69661 9.62164 8.67661 9.53264 8.67661 9.43264C8.67661 9.33164 8.69661 9.23264 8.73661 9.14264C8.77661 9.05264 8.82661 8.96264 8.89661 8.90264C9.18661 8.62164 9.67661 8.62164 9.95661 8.90264C10.0966 9.04164 10.1766 9.23264 10.1766 9.43264C10.1766 9.53264 10.1666 9.62164 10.1266 9.71264C10.0866 9.80264 10.0266 9.88264 9.95661 9.96264C9.88661 10.0326 9.80661 10.0816 9.71661 10.1216C9.62661 10.1616 9.52661 10.1826 9.42661 10.1826Z" fill="#130F26"/>
</svg>
