<svg width="24" height="24" viewBox="0 0 24 24" fill="none" xmlns="http://www.w3.org/2000/svg">
<g id="Iconly/Two-tone/Graph">
<g id="Graph">
<path id="Stroke 1" fill-rule="evenodd" clip-rule="evenodd" d="M17.2779 13.8891C17.9526 13.8891 18.5189 14.446 18.4158 15.1123C17.8105 19.0323 14.4547 21.9428 10.4074 21.9428C5.92946 21.9428 2.29999 18.3134 2.29999 13.8365C2.29999 10.1481 5.10209 6.7123 8.25683 5.93546C8.93472 5.76809 9.62946 6.24493 9.62946 6.94283C9.62946 11.6712 9.78841 12.8944 10.6863 13.5597C11.5842 14.2249 12.64 13.8891 17.2779 13.8891Z" stroke="#130F26" stroke-width="1.5" stroke-linecap="round" stroke-linejoin="round"/>
<path id="Stroke 3" opacity="0.4" fill-rule="evenodd" clip-rule="evenodd" d="M21.6925 9.9517C21.7462 6.9138 18.0146 2.01696 13.4672 2.10117C13.1136 2.10749 12.8304 2.40222 12.8146 2.75485C12.6999 5.25275 12.8546 8.48959 12.9409 9.95696C12.9672 10.4138 13.3262 10.7727 13.782 10.7991C15.2904 10.8854 18.6451 11.0033 21.1072 10.6306C21.442 10.5801 21.6872 10.2896 21.6925 9.9517Z" stroke="#130F26" stroke-width="1.5" stroke-linecap="round" stroke-linejoin="round"/>
</g>
</g>
</svg>
