<svg width="24" height="24" viewBox="0 0 24 24" fill="none" xmlns="http://www.w3.org/2000/svg">
<g id="Iconly/Two-tone/Image">
<g id="Image">
<path id="Stroke 1" fill-rule="evenodd" clip-rule="evenodd" d="M21.21 7.899V16.05C21.21 19.07 19.32 21.2 16.3 21.2H7.65C4.63 21.2 2.75 19.07 2.75 16.05V7.899C2.75 4.879 4.64 2.75 7.65 2.75H16.3C19.32 2.75 21.21 4.879 21.21 7.899Z" stroke="#130F26" stroke-width="1.5" stroke-linecap="round" stroke-linejoin="round"/>
<path id="Stroke 3" opacity="0.4" d="M5.2813 16.4308L6.8093 14.8178C7.3403 14.2548 8.2253 14.2278 8.7893 14.7578C8.8063 14.7748 9.7263 15.7098 9.7263 15.7098C10.2813 16.2748 11.1883 16.2838 11.7533 15.7298C11.7903 15.6938 14.0873 12.9078 14.0873 12.9078C14.6793 12.1888 15.7423 12.0858 16.4623 12.6788C16.5103 12.7188 18.6803 14.9458 18.6803 14.9458" stroke="#130F26" stroke-width="1.5" stroke-linecap="round" stroke-linejoin="round"/>
<path id="Stroke 5" opacity="0.4" fill-rule="evenodd" clip-rule="evenodd" d="M10.3126 9.13291C10.3126 10.1019 9.5276 10.8869 8.5586 10.8869C7.5896 10.8869 6.8046 10.1019 6.8046 9.13291C6.8046 8.16391 7.5896 7.37891 8.5586 7.37891C9.5276 7.37991 10.3126 8.16391 10.3126 9.13291Z" stroke="#130F26" stroke-width="1.5" stroke-linecap="round" stroke-linejoin="round"/>
</g>
</g>
</svg>
