<svg width="24" height="24" viewBox="0 0 24 24" fill="none" xmlns="http://www.w3.org/2000/svg">
<path fill-rule="evenodd" clip-rule="evenodd" d="M16.3347 2.75H7.6657C4.6447 2.75 2.7507 4.889 2.7507 7.916V16.084C2.7507 19.111 4.6347 21.25 7.6657 21.25H16.3337C19.3647 21.25 21.2507 19.111 21.2507 16.084V7.916C21.2507 4.889 19.3647 2.75 16.3347 2.75Z" stroke="#130F26" stroke-width="1.5" stroke-linecap="round" stroke-linejoin="round"/>
<path opacity="0.4" d="M7.5208 13.1972C6.8598 13.1972 6.3228 12.6602 6.3228 12.0002C6.3228 11.3402 6.8598 10.8022 7.5208 10.8022C8.1818 10.8022 8.7188 11.3402 8.7188 12.0002C8.7188 12.6602 8.1818 13.1972 7.5208 13.1972Z" fill="#130F26"/>
<path opacity="0.4" d="M12.0002 13.1972C11.3392 13.1972 10.8022 12.6602 10.8022 12.0002C10.8022 11.3402 11.3392 10.8022 12.0002 10.8022C12.6612 10.8022 13.1982 11.3402 13.1982 12.0002C13.1982 12.6602 12.6612 13.1972 12.0002 13.1972Z" fill="#130F26"/>
<path opacity="0.4" d="M16.4792 13.1972C15.8182 13.1972 15.2812 12.6602 15.2812 12.0002C15.2812 11.3402 15.8182 10.8022 16.4792 10.8022C17.1402 10.8022 17.6772 11.3402 17.6772 12.0002C17.6772 12.6602 17.1402 13.1972 16.4792 13.1972Z" fill="#130F26"/>
</svg>
