<svg width="24" height="24" viewBox="0 0 24 24" fill="none" xmlns="http://www.w3.org/2000/svg">
<path fill-rule="evenodd" clip-rule="evenodd" d="M14.7363 2.76172H8.08431C6.02531 2.76172 4.25031 4.43072 4.25031 6.49072V17.3397C4.25031 19.5157 5.90831 21.1147 8.08431 21.1147H16.0723C18.1323 21.1147 19.8023 19.3997 19.8023 17.3397V8.03772L14.7363 2.76172Z" stroke="#130F26" stroke-width="1.5" stroke-linecap="round" stroke-linejoin="round"/>
<path d="M14.4736 2.75V5.659C14.4736 7.079 15.6226 8.231 17.0426 8.234C18.3586 8.237 19.7056 8.238 19.7966 8.232" stroke="#130F26" stroke-width="1.5" stroke-linecap="round" stroke-linejoin="round"/>
<path opacity="0.4" fill-rule="evenodd" clip-rule="evenodd" d="M12.5937 10.4644C12.5937 10.0501 12.2579 9.71436 11.8437 9.71436C11.4295 9.71436 11.0937 10.0501 11.0937 10.4644V12.1641H9.39343C8.97922 12.1641 8.64343 12.4998 8.64343 12.9141C8.64343 13.3283 8.97922 13.6641 9.39343 13.6641H11.0937V15.3654C11.0937 15.7796 11.4295 16.1154 11.8437 16.1154C12.2579 16.1154 12.5937 15.7796 12.5937 15.3654V13.6641H14.2944C14.7086 13.6641 15.0444 13.3283 15.0444 12.9141C15.0444 12.4998 14.7086 12.1641 14.2944 12.1641H12.5937V10.4644Z" fill="#130F26"/>
</svg>
