<svg width="24" height="24" viewBox="0 0 24 24" fill="none" xmlns="http://www.w3.org/2000/svg">
<path fill-rule="evenodd" clip-rule="evenodd" d="M14.7366 2.76172H7.9786C5.9196 2.76172 4.2496 4.43072 4.2496 6.49072V17.3397C4.2496 19.5157 6.0136 21.1147 8.1896 21.1147H16.0726C18.1326 21.1147 19.8016 19.3997 19.8016 17.3397V8.03772L14.7366 2.76172Z" stroke="#130F26" stroke-width="1.5" stroke-linecap="round" stroke-linejoin="round"/>
<path d="M14.4739 2.75V5.659C14.4739 7.079 15.6229 8.231 17.0419 8.234C18.3589 8.237 19.7059 8.238 19.7969 8.232" stroke="#130F26" stroke-width="1.5" stroke-linecap="round" stroke-linejoin="round"/>
<path opacity="0.4" fill-rule="evenodd" clip-rule="evenodd" d="M10.6407 10.6513C10.3478 10.3584 9.87295 10.3584 9.58005 10.6513C9.28716 10.9442 9.28716 11.4191 9.58005 11.712L10.7828 12.9148L9.5803 14.1173C9.2874 14.4102 9.2874 14.8851 9.5803 15.178C9.87319 15.4709 10.3481 15.4709 10.641 15.178L11.8435 13.9754L13.0461 15.178C13.3389 15.4709 13.8138 15.4709 14.1067 15.178C14.3996 14.8851 14.3996 14.4102 14.1067 14.1173L12.9042 12.9148L14.107 11.712C14.3998 11.4191 14.3998 10.9442 14.107 10.6513C13.8141 10.3584 13.3392 10.3584 13.0463 10.6513L11.8435 11.8541L10.6407 10.6513Z" fill="#130F26"/>
</svg>
