<svg width="24" height="24" viewBox="0 0 24 24" fill="none" xmlns="http://www.w3.org/2000/svg">
<path fill-rule="evenodd" clip-rule="evenodd" d="M14.7363 2.76172H8.0843C6.0253 2.76172 4.2503 4.43072 4.2503 6.49072V17.2277C4.2503 19.4037 5.9083 21.1147 8.0843 21.1147H16.0723C18.1323 21.1147 19.8023 19.2877 19.8023 17.2277V8.03772L14.7363 2.76172Z" stroke="#130F26" stroke-width="1.5" stroke-linecap="round" stroke-linejoin="round"/>
<path d="M14.4736 2.75V5.659C14.4736 7.079 15.6226 8.231 17.0426 8.234C18.3586 8.237 19.7056 8.238 19.7966 8.232" stroke="#130F26" stroke-width="1.5" stroke-linecap="round" stroke-linejoin="round"/>
<path opacity="0.4" fill-rule="evenodd" clip-rule="evenodd" d="M12.1716 8.91073C12.0309 8.76938 11.8396 8.68992 11.6401 8.68994C11.4406 8.68996 11.2494 8.76945 11.1086 8.91082L8.27064 11.7618C7.97842 12.0554 7.9795 12.5303 8.27306 12.8225C8.56663 13.1147 9.0415 13.1136 9.33372 12.8201L10.8906 11.256V16.0134C10.8906 16.4276 11.2264 16.7634 11.6406 16.7634C12.0548 16.7634 12.3906 16.4276 12.3906 16.0134V11.2565L13.9477 12.8202C14.24 13.1137 14.7149 13.1147 15.0084 12.8224C15.3019 12.5301 15.3029 12.0552 15.0106 11.7617L12.1716 8.91073Z" fill="#130F26"/>
</svg>
