<svg width="24" height="24" viewBox="0 0 24 24" fill="none" xmlns="http://www.w3.org/2000/svg">
<path fill-rule="evenodd" clip-rule="evenodd" d="M14.7364 2.76172H8.0844C6.0254 2.76172 4.2504 4.43072 4.2504 6.49072V17.2277C4.2504 19.4037 5.9084 21.1147 8.0844 21.1147H16.0724C18.1324 21.1147 19.8024 19.2877 19.8024 17.2277V8.03772L14.7364 2.76172Z" stroke="#130F26" stroke-width="1.5" stroke-linecap="round" stroke-linejoin="round"/>
<path d="M14.4737 2.75V5.659C14.4737 7.079 15.6227 8.231 17.0427 8.234C18.3587 8.237 19.7057 8.238 19.7967 8.232" stroke="#130F26" stroke-width="1.5" stroke-linecap="round" stroke-linejoin="round"/>
<path opacity="0.4" fill-rule="evenodd" clip-rule="evenodd" d="M12.3907 9.44043C12.3907 9.02622 12.0549 8.69043 11.6407 8.69043C11.2265 8.69043 10.8907 9.02622 10.8907 9.44043V14.1978L9.33382 12.6337C9.04159 12.3402 8.56672 12.3391 8.27316 12.6313C7.9796 12.9235 7.97851 13.3984 8.27074 13.692L11.1087 16.543C11.2495 16.6843 11.4407 16.7638 11.6402 16.7638C11.8296 16.7639 12.0116 16.6922 12.15 16.564C12.1589 16.5558 12.1676 16.5473 12.1761 16.5387L15.0107 13.6921C15.303 13.3985 15.302 12.9237 15.0085 12.6314C14.715 12.3391 14.2401 12.3401 13.9478 12.6336L12.3907 14.1973V9.44043Z" fill="#130F26"/>
</svg>
