<svg width="24" height="24" viewBox="0 0 24 24" fill="none" xmlns="http://www.w3.org/2000/svg">
<path fill-rule="evenodd" clip-rule="evenodd" d="M18.8651 5.12401C19.3021 5.27701 19.5941 5.68901 19.5941 6.15201V12.925C19.5941 14.818 18.9051 16.625 17.6911 18.025C17.0791 18.73 16.3071 19.279 15.4861 19.723L11.9281 21.645L8.36409 19.722C7.54109 19.278 6.76809 18.73 6.15609 18.024C4.94009 16.624 4.25009 14.816 4.25009 12.921V6.15201C4.25009 5.68901 4.54209 5.27701 4.97909 5.12401L11.5611 2.81101C11.7951 2.72901 12.0501 2.72901 12.2831 2.81101L18.8651 5.12401Z" stroke="#130F26" stroke-width="1.5" stroke-linecap="round" stroke-linejoin="round"/>
<path opacity="0.4" fill-rule="evenodd" clip-rule="evenodd" d="M10.5734 9.55854C10.2805 9.26564 9.80565 9.26564 9.51276 9.55854C9.21987 9.85143 9.21987 10.3263 9.51276 10.6192L10.8615 11.968L9.51297 13.3165C9.22008 13.6094 9.22008 14.0843 9.51297 14.3772C9.80587 14.6701 10.2807 14.6701 10.5736 14.3772L11.9222 13.0286L13.2708 14.3772C13.5637 14.6701 14.0385 14.6701 14.3314 14.3772C14.6243 14.0843 14.6243 13.6094 14.3314 13.3165L12.9829 11.968L14.3316 10.6192C14.6245 10.3263 14.6245 9.85143 14.3316 9.55854C14.0387 9.26564 13.5639 9.26564 13.271 9.55854L11.9222 10.9073L10.5734 9.55854Z" fill="#130F26"/>
</svg>
