<svg width="24" height="24" viewBox="0 0 24 24" fill="none" xmlns="http://www.w3.org/2000/svg">
<path opacity="0.4" fill-rule="evenodd" clip-rule="evenodd" d="M5.46448 10.9321C5.46448 10.5179 5.12869 10.1821 4.71448 10.1821C4.30026 10.1821 3.96448 10.5179 3.96448 10.9321C3.96448 15.1831 7.2164 18.6736 11.3687 19.052V21.147C11.3687 21.5612 11.7045 21.897 12.1187 21.897C12.5329 21.897 12.8687 21.5612 12.8687 21.147V19.0519C17.0206 18.6732 20.2721 15.1829 20.2721 10.9321C20.2721 10.5179 19.9363 10.1821 19.5221 10.1821C19.1079 10.1821 18.7721 10.5179 18.7721 10.9321C18.7721 14.6074 15.7936 17.5859 12.1183 17.5859C8.44298 17.5859 5.46448 14.6074 5.46448 10.9321Z" fill="#130F26"/>
<path fill-rule="evenodd" clip-rule="evenodd" d="M12.2447 14.5843H11.9923C9.97132 14.5843 8.33228 12.9462 8.33228 10.9243V6.37387C8.33228 4.35291 9.97132 2.71387 11.9923 2.71387H12.2447C14.2656 2.71387 15.9047 4.35291 15.9047 6.37387V10.9243C15.9047 12.9462 14.2656 14.5843 12.2447 14.5843Z" stroke="#130F26" stroke-width="1.5" stroke-linecap="round" stroke-linejoin="round"/>
</svg>
