<svg width="24" height="24" viewBox="0 0 24 24" fill="none" xmlns="http://www.w3.org/2000/svg">
<g id="Iconly/Two-tone/Volume Off">
<g id="Group 7">
<path id="Stroke 1" d="M6.09479 16.6499C5.85979 16.5769 5.64679 16.4689 5.45979 16.3089C4.69479 15.6559 4.75079 13.9119 4.75079 12.6329C4.75079 11.3549 4.69479 9.60995 5.45979 8.95795C6.16879 8.35095 6.67279 8.50995 7.96979 8.40695C9.26579 8.30395 12.0088 4.34895 14.1258 5.59895C14.6108 5.99295 14.8958 6.58095 15.0638 7.48595" stroke="#130F26" stroke-width="1.5" stroke-linecap="round" stroke-linejoin="round"/>
<path id="Stroke 3" d="M15.2833 14.6675C15.2463 17.5405 15.0213 18.9395 14.1263 19.6675C13.1463 20.2465 12.0363 19.7145 10.9913 18.9585" stroke="#130F26" stroke-width="1.5" stroke-linecap="round" stroke-linejoin="round"/>
<path id="Stroke 5" opacity="0.4" d="M4.75159 20.7495L8.46459 17.0365L15.2836 10.2165L20.7506 4.74951" stroke="#130F26" stroke-width="1.5" stroke-linecap="round" stroke-linejoin="round"/>
</g>
</g>
</svg>
