<svg width="24" height="24" viewBox="0 0 24 24" fill="none" xmlns="http://www.w3.org/2000/svg">
<path opacity="0.4" d="M2.80409 15.4771C2.80409 15.4771 2.94609 17.2151 2.97909 17.7631C3.02309 18.4981 3.30709 19.3191 3.78109 19.8891C4.45009 20.6971 5.23809 20.9821 6.29009 20.9841C7.52709 20.9861 16.5221 20.9861 17.7591 20.9841C18.8111 20.9821 19.5991 20.6971 20.2681 19.8891C20.7421 19.3191 21.0261 18.4981 21.0711 17.7631C21.1031 17.2151 21.2451 15.4771 21.2451 15.4771" stroke="#130F26" stroke-width="1.5" stroke-linecap="round" stroke-linejoin="round"/>
<path d="M8.49599 5.32949V4.95849C8.49599 3.73849 9.48399 2.75049 10.704 2.75049H13.286C14.505 2.75049 15.494 3.73849 15.494 4.95849L15.495 5.32949" stroke="#130F26" stroke-width="1.5" stroke-linecap="round" stroke-linejoin="round"/>
<path d="M11.995 16.6783V15.3843" stroke="#130F26" stroke-width="1.5" stroke-linecap="round" stroke-linejoin="round"/>
<path fill-rule="evenodd" clip-rule="evenodd" d="M2.74989 8.38905V11.8561C4.66789 13.1211 6.96589 14.0071 9.48789 14.3581C9.78989 13.2571 10.7829 12.4501 11.9899 12.4501C13.1779 12.4501 14.1909 13.2571 14.4729 14.3681C17.0049 14.0171 19.3119 13.1311 21.2399 11.8561V8.38905C21.2399 6.69505 19.8769 5.33105 18.1829 5.33105H5.81689C4.12289 5.33105 2.74989 6.69505 2.74989 8.38905Z" stroke="#130F26" stroke-width="1.5" stroke-linecap="round" stroke-linejoin="round"/>
</svg>
